<?xml version="1.0" encoding="UTF-8" standalone="no"?>
<!DOCTYPE svg PUBLIC "-//W3C//DTD SVG 1.1//EN" "http://www.w3.org/Graphics/SVG/1.1/DTD/svg11.dtd">
<svg version="1.1" xmlns="http://www.w3.org/2000/svg" xmlns:xl="http://www.w3.org/1999/xlink" xmlns:dc="http://purl.org/dc/elements/1.1/" viewBox="299 382 102 102" width="102" height="102">
  <defs/>
  <g id="Canvas_1" fill="none" stroke-dasharray="none" stroke="none" stroke-opacity="1" fill-opacity="1">
    <title>Canvas 1</title>
    <g id="Canvas_1_Layer_1">
      <title>Layer 1</title>
      <g id="Graphic_13">
        <path d="M 329.08915 430.6483 C 322.93615 436.8013 322.93615 446.7763 329.08915 452.9293 C 335.24215 459.0823 345.21715 459.0823 351.37015 452.9293 C 357.52315 446.7763 357.52315 436.8013 351.37015 430.6483 C 345.21715 424.4953 335.24215 424.4953 329.08915 430.6483 Z" fill="#939597"/>
      </g>
      <g id="Graphic_14">
        <path d="M 400.01855 382 L 400.01855 467.069 C 400.01855 467.958 399.94655 468.847 399.80255 469.727 C 399.28455 472.882 397.83655 475.912 395.46555 478.346 C 389.39855 484.576 379.55555 484.576 373.48855 478.346 C 371.11755 475.912 369.66955 472.882 369.15155 469.727 C 369.00755 468.847 368.93555 467.958 368.93555 467.069 L 368.93555 431.859 C 368.93555 421.941 360.46755 413.083 350.80455 413.083 L 313.90655 413.083 C 309.92955 413.083 306.58555 412.341 303.55255 409.228 C 297.48255 403.001 297.48255 392.899 303.55255 386.673 C 306.58555 383.56 310.56355 382 314.54055 382 Z" fill="#939597"/>
      </g>
      <g id="Graphic_15">
        <path d="M 303.61475 456.1227 C 297.46175 462.2757 297.46175 472.2507 303.61475 478.4037 C 309.76775 484.5567 319.74275 484.5567 325.89575 478.4037 C 332.04875 472.2507 332.04875 462.2757 325.89575 456.1227 C 319.74275 449.9697 309.76775 449.9697 303.61475 456.1227 Z" fill="#939597"/>
      </g>
    </g>
  </g>
</svg>
