<svg version="1.1" id="Layer_1" xmlns="http://www.w3.org/2000/svg" xmlns:xlink="http://www.w3.org/1999/xlink" x="0px" y="0px"
	 width="100%" viewBox="0 0 2471 404" enable-background="new 0 0 2471 404" xml:space="preserve">
<path fill="#000000" opacity="1.000000" stroke="none" 
	d="
M2472.000000,285.000000 
	C2472.000000,324.993835 2472.000000,364.987701 2472.000000,404.949341 
	C1648.333374,404.949341 824.666687,404.949341 1.000000,404.949341 
	C1.000000,375.903076 1.000000,346.907501 1.468657,317.455933 
	C77.202782,317.000000 152.468246,317.000000 227.733582,317.000000 
	C227.733582,296.401306 227.733582,276.329803 227.733582,255.862183 
	C172.063828,255.862183 116.659256,255.862183 61.271469,255.862183 
	C61.271469,233.391174 61.271469,211.319702 61.271469,188.851028 
	C94.613754,188.851028 127.686584,188.851028 160.722305,188.851028 
	C160.722305,168.378601 160.722305,148.306931 160.722305,127.838585 
	C127.373688,127.838585 94.300858,127.838585 61.283817,127.838585 
	C61.283817,105.366234 61.283817,83.294617 61.283817,60.827408 
	C116.971130,60.827408 172.375702,60.827408 228.000000,60.827408 
	C228.000000,40.619839 228.000000,20.809919 228.000000,1.000000 
	C976.000000,1.000000 1724.000000,1.000000 2472.000000,1.000000 
	C2472.000000,3.385525 2472.000000,5.718421 2471.531250,8.525658 
	C2383.924316,9.000000 2296.786377,9.061222 2209.648193,8.932828 
	C2196.838135,8.913954 2186.218994,13.883585 2177.337402,22.334509 
	C2160.195068,38.646217 2157.756592,66.215668 2171.120117,85.543343 
	C2179.388428,97.502029 2190.445068,104.204254 2205.595703,104.092857 
	C2243.747559,103.812325 2281.904785,103.838379 2320.056152,104.159309 
	C2326.405029,104.212723 2333.080322,105.461510 2339.014404,107.713768 
	C2361.023926,116.067261 2376.494629,138.186188 2376.132568,162.432663 
	C2375.612793,197.246811 2375.951660,232.074661 2376.065186,266.896210 
	C2376.078369,270.939667 2376.598145,275.075806 2377.559814,279.003357 
	C2380.056641,289.202454 2385.046143,297.856964 2393.198242,304.870697 
	C2401.221924,311.773956 2410.364014,315.976288 2420.626709,316.868164 
	C2441.280518,318.663177 2460.879395,305.763519 2469.060059,287.035217 
	C2469.465820,286.106018 2470.994385,285.667175 2472.000000,285.000000 
M1233.000000,212.435211 
	C1233.000000,199.604141 1233.414795,186.754593 1232.844971,173.948883 
	C1232.501343,166.228256 1231.414673,158.350449 1229.294312,150.934265 
	C1222.557983,127.372620 1209.492676,107.957573 1189.712524,93.163681 
	C1170.761963,78.990242 1149.747192,71.006134 1125.917358,71.000267 
	C1118.751953,70.998505 1111.585693,71.069893 1104.421265,70.985222 
	C1090.210938,70.817291 1076.851807,74.743080 1064.194336,80.525398 
	C1047.286621,88.249420 1032.934204,99.443794 1021.773071,114.629509 
	C1008.278687,132.989822 1000.478149,153.246017 1000.032654,176.121094 
	C999.838074,186.115540 1000.126099,196.118866 999.972168,206.114746 
	C999.703003,223.593857 1003.439575,240.040237 1011.201904,255.770126 
	C1018.879883,271.329163 1029.736206,284.188782 1043.321045,294.609772 
	C1060.888916,308.086212 1081.230347,315.150818 1103.152954,316.848511 
	C1118.923096,318.069733 1134.826172,317.332214 1150.296387,313.710663 
	C1157.532593,312.016663 1164.599609,309.058472 1171.299805,305.769531 
	C1177.890869,302.534058 1184.596436,298.918182 1190.039307,294.099884 
	C1198.350220,286.742584 1206.588867,278.919739 1213.119995,270.019073 
	C1225.353149,253.347809 1232.172485,234.318054 1233.000000,212.435211 
M1472.528564,303.044037 
	C1477.449341,300.020569 1482.803833,297.519501 1487.202271,293.867096 
	C1496.987671,285.741760 1503.954590,275.574524 1508.109375,263.345581 
	C1512.165039,251.408218 1512.133545,239.188477 1511.950928,226.915894 
	C1511.803101,216.992920 1510.015747,207.530716 1505.279785,198.460922 
	C1494.333740,177.498718 1477.109497,166.844818 1453.868042,164.970291 
	C1438.323608,163.716568 1429.693359,149.489044 1432.565186,135.717484 
	C1434.301147,127.392403 1440.167236,122.218193 1445.213257,116.515671 
	C1452.597046,108.171349 1456.575684,98.298088 1457.751709,87.788445 
	C1459.399048,73.068649 1457.615845,58.658993 1449.267822,45.529736 
	C1442.171143,34.368725 1433.349487,25.225939 1421.587769,19.330378 
	C1409.904053,13.473846 1397.166626,11.980875 1384.213989,11.990911 
	C1349.715454,12.017643 1315.216919,12.000000 1280.718384,12.000000 
	C1278.932983,12.000000 1277.147461,12.000000 1275.211670,12.000000 
	C1275.211670,111.492317 1275.211670,210.561157 1275.211670,310.000000 
	C1277.209595,310.000000 1279.001709,310.000000 1280.793823,310.000000 
	C1334.458252,310.000000 1388.122559,309.978241 1441.786987,310.018616 
	C1452.326416,310.026520 1462.318970,307.710175 1472.528564,303.044037 
M308.000000,297.499573 
	C308.000000,250.515335 307.996826,203.531113 308.003113,156.546875 
	C308.004150,148.620712 311.650024,145.000381 319.571320,145.000168 
	C340.064392,144.999634 360.557465,144.999893 381.050537,145.000061 
	C389.903961,145.000122 393.999268,149.190994 393.999451,158.261276 
	C394.000580,209.410660 394.000000,260.560059 394.000000,311.709442 
	C394.000000,313.453552 394.000000,315.197693 394.000000,316.640320 
	C414.461578,316.640320 434.197662,316.640320 453.999939,316.640320 
	C453.999939,262.634430 454.026031,208.988129 453.949982,155.341980 
	C453.943939,151.100327 453.693756,146.754608 452.762726,142.636841 
	C448.786743,125.051765 440.412842,110.120934 425.677246,99.161217 
	C414.386688,90.763771 401.676331,85.538063 387.747498,85.177170 
	C363.272186,84.543030 338.756073,84.558716 314.284210,85.255737 
	C306.443390,85.479065 298.515778,88.189957 290.934784,90.692436 
	C279.784332,94.373177 271.196472,102.111755 263.764801,110.871124 
	C254.119751,122.239334 248.185364,135.550751 248.108109,150.558624 
	C247.831955,204.205750 248.000000,257.855164 248.000000,311.503723 
	C248.000000,313.267609 248.000000,315.031494 248.000000,316.713074 
	C268.314972,316.713074 288.049408,316.713074 308.000000,316.713074 
	C308.000000,310.452118 308.000000,304.475739 308.000000,297.499573 
M529.414734,251.936111 
	C530.945374,256.137878 532.272034,260.428070 534.047546,264.523712 
	C538.231567,274.175476 540.673157,284.414795 547.369751,293.177063 
	C563.168823,313.849792 590.979126,322.354584 614.812866,313.543396 
	C633.281250,306.715759 645.539001,293.346985 652.003235,274.688263 
	C658.079285,257.150177 664.179138,239.619675 670.405212,222.134491 
	C677.273865,202.844681 684.288208,183.606644 691.257568,164.352753 
	C697.739502,146.445602 704.305725,128.568695 710.716248,110.636124 
	C714.048462,101.314873 717.124634,91.902107 720.497131,82.000000 
	C718.192078,82.000000 716.551270,81.974953 714.911438,82.003838 
	C696.333191,82.331139 677.755066,82.666740 659.176941,82.999718 
	C659.010376,83.002708 658.797607,82.932945 658.684204,83.010674 
	C657.491333,83.828606 655.697571,84.423187 655.247253,85.550026 
	C653.830566,89.094841 653.065735,92.893478 651.790039,96.502495 
	C644.429932,117.325569 636.997559,138.123123 629.585327,158.927780 
	C619.650391,186.813156 609.742554,214.708252 599.735901,242.567841 
	C598.443665,246.165527 596.631042,249.576294 594.913208,253.399017 
	C593.885254,252.320984 593.376465,252.023285 593.230774,251.600449 
	C588.381714,237.531204 583.683289,223.408951 578.716187,209.381790 
	C573.481262,194.598404 567.986206,179.907227 562.620605,165.169983 
	C557.421448,150.889862 552.153870,136.633743 547.081909,122.308434 
	C542.918945,110.550491 538.997986,98.706856 534.972107,86.900375 
	C534.033630,84.148270 532.492493,82.872284 529.215149,82.906250 
	C510.558258,83.099625 491.898285,82.994781 473.239380,83.013809 
	C472.179535,83.014893 471.119873,83.214767 469.544128,83.374390 
	C476.809052,103.900955 483.889648,123.955109 491.005951,143.996597 
	C495.987000,158.024567 500.988129,172.045563 506.032654,186.050812 
	C511.236359,200.497986 516.564270,214.900665 521.717102,229.365845 
	C524.293640,236.599045 526.601196,243.928101 529.414734,251.936111 
M1580.404907,295.035248 
	C1592.012207,304.769867 1605.744019,309.244598 1620.542114,309.862213 
	C1635.513306,310.487061 1650.538330,310.267029 1665.524780,309.864502 
	C1671.270996,309.710175 1677.064697,308.373688 1682.674683,306.941467 
	C1688.029541,305.574402 1693.173584,303.382172 1698.395264,301.557892 
	C1698.747192,302.510376 1698.960449,302.818939 1698.961060,303.127899 
	C1698.985840,316.125488 1698.995361,329.123077 1698.998901,342.120697 
	C1699.003052,357.376007 1689.393921,367.000000 1674.166992,367.000000 
	C1656.670044,367.000000 1639.173096,366.995178 1621.676147,367.006256 
	C1619.557861,367.007599 1617.020386,366.503021 1617.011963,369.874756 
	C1616.984741,380.816040 1617.001831,391.757385 1617.001831,402.998840 
	C1639.612427,402.998840 1661.741089,402.998932 1683.869751,402.998016 
	C1684.203003,402.998016 1684.547607,403.039642 1684.867676,402.971619 
	C1700.457886,399.660309 1713.695923,392.382904 1723.116821,379.279938 
	C1730.503418,369.006470 1734.994141,357.552094 1734.995483,344.666321 
	C1735.004150,265.346863 1735.000000,186.027405 1735.000000,106.707939 
	C1735.000000,104.923676 1735.000000,103.139420 1735.000000,101.217346 
	C1722.832031,101.217346 1711.095093,101.217346 1699.000000,101.217346 
	C1699.000000,103.222336 1699.000000,105.015617 1699.000000,106.808907 
	C1699.000000,150.801208 1698.820679,194.794601 1699.085083,238.785324 
	C1699.196533,257.336456 1682.329346,273.649384 1663.889282,273.954102 
	C1649.895508,274.185394 1635.866455,274.559692 1621.905151,273.848633 
	C1606.786865,273.078644 1595.615845,265.406921 1590.144531,250.964081 
	C1588.128174,245.641418 1587.164917,239.610825 1587.132202,233.895050 
	C1586.888550,191.403885 1587.000000,148.910675 1587.000000,106.418114 
	C1587.000000,104.661507 1587.000000,102.904900 1587.000000,101.000061 
	C1576.047607,101.000061 1565.727295,101.132385 1555.413452,100.928864 
	C1551.764648,100.856857 1550.918213,102.283112 1550.947754,105.639038 
	C1551.358032,152.381073 1551.474487,199.127045 1552.215332,245.863281 
	C1552.321533,252.563019 1554.655151,259.476166 1557.127686,265.835785 
	C1561.721680,277.651459 1570.224243,286.754517 1580.404907,295.035248 
M2110.515869,197.995209 
	C2111.688965,195.579529 2113.010742,193.223602 2114.009277,190.737808 
	C2118.519043,179.512955 2119.789062,168.056137 2118.157471,155.912567 
	C2115.749756,137.992920 2107.083984,123.740295 2093.716309,112.463631 
	C2078.458252,99.592300 2059.495117,96.068802 2040.319214,95.236389 
	C2027.215454,94.667564 2014.006836,96.205917 2000.859741,97.034958 
	C1988.288330,97.827690 1976.465942,101.330956 1965.619873,107.833107 
	C1952.837524,115.496010 1943.824707,126.300453 1937.880859,140.010849 
	C1933.296875,150.584900 1932.308472,161.698853 1932.122803,172.836456 
	C1931.722778,196.818115 1931.870239,220.812256 1932.091309,244.798553 
	C1932.146484,250.790909 1932.911987,256.855438 1934.069214,262.745605 
	C1939.691895,291.360321 1964.870728,309.534302 1992.542358,309.904785 
	C2023.521729,310.319580 2054.510986,310.003021 2085.495850,309.990295 
	C2086.931641,309.989716 2088.367188,309.847748 2089.714844,309.776276 
	C2089.714844,297.688782 2089.714844,285.953308 2089.714844,274.000000 
	C2087.787598,274.000000 2086.144287,274.000000 2084.500732,274.000000 
	C2053.182617,274.000000 2021.864258,274.072205 1990.546631,273.945251 
	C1983.412109,273.916351 1977.689819,270.827423 1973.307251,264.908386 
	C1966.309692,255.457779 1968.262939,244.789459 1968.080322,234.000000 
	C1970.106934,234.000000 1971.742920,234.000000 1973.379028,234.000000 
	C1997.533936,234.000000 2021.689819,233.872375 2045.843384,234.049576 
	C2059.548096,234.150101 2072.630615,231.896927 2084.493164,224.803116 
	C2095.275146,218.355621 2104.452881,210.185898 2110.515869,197.995209 
M842.000000,259.500000 
	C842.000000,278.593323 842.000000,297.686646 842.000000,316.716980 
	C862.638000,316.716980 882.706909,316.716980 903.000000,316.716980 
	C903.000000,314.625793 903.000000,312.815735 903.000000,311.005676 
	C903.000000,261.184723 903.217896,211.361862 902.777100,161.544815 
	C902.706848,153.610291 911.100464,145.697968 918.437744,145.847610 
	C939.590393,146.279037 960.757446,146.000000 981.918884,146.000000 
	C983.524109,146.000000 985.129333,146.000000 986.740967,146.000000 
	C986.740967,125.743881 986.740967,106.008591 986.740967,86.000000 
	C964.851501,86.000000 943.219910,86.024338 921.588379,85.991081 
	C908.120605,85.970375 895.393921,88.239441 883.240601,94.789810 
	C869.679932,102.098785 859.449768,112.157120 851.839905,125.432663 
	C844.489807,138.254913 842.214111,152.189377 842.084778,166.523636 
	C841.808105,197.180176 842.000000,227.840958 842.000000,259.500000 
M1829.000000,59.500000 
	C1829.000000,42.074425 1829.000000,24.648849 1829.000000,7.282011 
	C1816.697144,7.282011 1804.960693,7.282011 1793.000000,7.282011 
	C1793.000000,9.371654 1793.000000,11.181230 1793.000000,12.990805 
	C1793.000000,87.464096 1792.975098,161.937424 1793.043457,236.410645 
	C1793.049561,242.990341 1793.457397,249.587860 1794.036377,256.145508 
	C1795.984009,278.202728 1807.847900,293.648468 1826.862915,303.911316 
	C1834.773804,308.181000 1843.535522,309.934357 1852.549072,309.983612 
	C1864.639038,310.049744 1876.729492,310.000000 1888.698242,310.000000 
	C1888.698242,297.990570 1888.698242,286.586761 1888.698242,275.000000 
	C1882.084595,275.000000 1875.768066,275.129486 1869.459351,274.964783 
	C1862.719971,274.788879 1855.883667,274.963623 1849.274780,273.868744 
	C1836.569824,271.763855 1829.301514,263.093048 1829.152588,250.437744 
	C1828.721680,213.789307 1828.997314,177.132492 1829.009888,140.478973 
	C1829.010376,139.045273 1829.156006,137.611618 1829.254272,135.808197 
	C1849.325928,135.808197 1869.062744,135.808197 1888.707275,135.808197 
	C1888.707275,124.008720 1888.707275,112.605179 1888.707275,100.814377 
	C1868.680298,100.814377 1848.943481,100.814377 1829.000000,100.814377 
	C1829.000000,87.114456 1829.000000,73.807228 1829.000000,59.500000 
M800.000000,278.500000 
	C800.000000,214.741882 800.000000,150.983749 800.000000,87.285690 
	C779.694580,87.285690 759.956726,87.285690 740.283081,87.285690 
	C740.283081,163.972321 740.283081,240.372925 740.283081,316.714294 
	C760.305359,316.714294 780.043274,316.714294 800.000000,316.714294 
	C800.000000,304.119934 800.000000,291.809967 800.000000,278.500000 
M2255.506592,147.996094 
	C2245.097412,156.931610 2240.230713,168.861282 2240.252441,181.976257 
	C2240.280762,199.062103 2247.533691,213.183136 2262.113281,223.033295 
	C2273.835938,230.953110 2286.640869,232.831802 2300.210449,229.962769 
	C2311.243164,227.630142 2320.167725,221.577438 2327.428955,213.062531 
	C2336.899170,201.957504 2340.497559,188.539490 2337.587158,174.840286 
	C2332.905029,152.799271 2319.687256,138.270096 2296.059326,134.878891 
	C2280.488770,132.644150 2267.355469,136.919907 2255.506592,147.996094 
M2193.581543,214.998444 
	C2191.558838,215.966217 2189.504150,216.872864 2187.518311,217.911224 
	C2167.854004,228.193481 2159.591797,249.007233 2163.382812,269.168884 
	C2167.979980,293.616577 2190.601807,311.818024 2217.994385,308.031525 
	C2232.080811,306.084290 2243.499023,299.540436 2251.453857,287.906281 
	C2262.273193,272.083374 2263.660889,255.115005 2254.927246,237.872482 
	C2247.569824,223.347076 2235.231934,215.227097 2219.466797,212.005356 
	C2210.779785,210.230042 2202.449951,211.419830 2193.581543,214.998444 
M785.283691,67.973999 
	C797.052490,62.258461 806.483643,48.043827 804.274536,32.215183 
	C801.607605,13.106757 779.326965,-1.502201 760.550964,4.635636 
	C740.372253,11.232021 728.852112,35.098160 741.043762,55.216431 
	C749.622314,69.372574 769.460327,76.351631 785.283691,67.973999 
z"/>
<path fill="#FFFFFF" opacity="1.000000" stroke="none" 
	d="
M2472.000000,284.531311 
	C2470.994385,285.667175 2469.465820,286.106018 2469.060059,287.035217 
	C2460.879395,305.763519 2441.280518,318.663177 2420.626709,316.868164 
	C2410.364014,315.976288 2401.221924,311.773956 2393.198242,304.870697 
	C2385.046143,297.856964 2380.056641,289.202454 2377.559814,279.003357 
	C2376.598145,275.075806 2376.078369,270.939667 2376.065186,266.896210 
	C2375.951660,232.074661 2375.612793,197.246811 2376.132568,162.432663 
	C2376.494629,138.186188 2361.023926,116.067261 2339.014404,107.713768 
	C2333.080322,105.461510 2326.405029,104.212723 2320.056152,104.159309 
	C2281.904785,103.838379 2243.747559,103.812325 2205.595703,104.092857 
	C2190.445068,104.204254 2179.388428,97.502029 2171.120117,85.543343 
	C2157.756592,66.215668 2160.195068,38.646217 2177.337402,22.334509 
	C2186.218994,13.883585 2196.838135,8.913954 2209.648193,8.932828 
	C2296.786377,9.061222 2383.924316,9.000000 2471.531250,9.000000 
	C2472.000000,100.687561 2472.000000,192.375122 2472.000000,284.531311 
z"/>
<path fill="#FFFFFF" opacity="1.000000" stroke="none" 
	d="
M227.531342,1.000000 
	C228.000000,20.809919 228.000000,40.619839 228.000000,60.827408 
	C172.375702,60.827408 116.971130,60.827408 61.283817,60.827408 
	C61.283817,83.294617 61.283817,105.366234 61.283817,127.838585 
	C94.300858,127.838585 127.373688,127.838585 160.722305,127.838585 
	C160.722305,148.306931 160.722305,168.378601 160.722305,188.851028 
	C127.686584,188.851028 94.613754,188.851028 61.271469,188.851028 
	C61.271469,211.319702 61.271469,233.391174 61.271469,255.862183 
	C116.659256,255.862183 172.063828,255.862183 227.733582,255.862183 
	C227.733582,276.329803 227.733582,296.401306 227.733582,317.000000 
	C152.468246,317.000000 77.202782,317.000000 1.468657,317.000000 
	C1.000000,211.751587 1.000000,106.503174 1.000000,1.000000 
	C76.354034,1.000000 151.708359,1.000000 227.531342,1.000000 
z"/>
<path fill="#FFFFFF" opacity="1.000000" stroke="none" 
	d="
M1233.000000,212.923813 
	C1232.172485,234.318054 1225.353149,253.347809 1213.119995,270.019073 
	C1206.588867,278.919739 1198.350220,286.742584 1190.039307,294.099884 
	C1184.596436,298.918182 1177.890869,302.534058 1171.299805,305.769531 
	C1164.599609,309.058472 1157.532593,312.016663 1150.296387,313.710663 
	C1134.826172,317.332214 1118.923096,318.069733 1103.152954,316.848511 
	C1081.230347,315.150818 1060.888916,308.086212 1043.321045,294.609772 
	C1029.736206,284.188782 1018.879883,271.329163 1011.201904,255.770126 
	C1003.439575,240.040237 999.703003,223.593857 999.972168,206.114746 
	C1000.126099,196.118866 999.838074,186.115540 1000.032654,176.121094 
	C1000.478149,153.246017 1008.278687,132.989822 1021.773071,114.629509 
	C1032.934204,99.443794 1047.286621,88.249420 1064.194336,80.525398 
	C1076.851807,74.743080 1090.210938,70.817291 1104.421265,70.985222 
	C1111.585693,71.069893 1118.751953,70.998505 1125.917358,71.000267 
	C1149.747192,71.006134 1170.761963,78.990242 1189.712524,93.163681 
	C1209.492676,107.957573 1222.557983,127.372620 1229.294312,150.934265 
	C1231.414673,158.350449 1232.501343,166.228256 1232.844971,173.948883 
	C1233.414795,186.754593 1233.000000,199.604141 1233.000000,212.923813 
M1069.961182,236.567444 
	C1075.220459,241.370483 1079.836792,247.291946 1085.864868,250.757828 
	C1101.282593,259.622375 1118.722168,259.075287 1135.012817,255.530609 
	C1157.428467,250.653229 1172.100342,231.711212 1172.939331,208.589539 
	C1173.301270,198.614822 1173.132568,188.613846 1172.966431,178.628769 
	C1172.759033,166.159042 1168.258301,155.168655 1159.643311,146.320190 
	C1150.604248,137.036194 1139.786499,131.510666 1126.229492,130.752213 
	C1114.563599,130.099564 1103.369873,130.126297 1092.124756,133.869583 
	C1073.086426,140.207123 1059.831055,160.691910 1059.986938,179.675720 
	C1060.062134,188.830627 1059.986694,197.986694 1060.003296,207.142181 
	C1060.022705,217.790634 1062.998901,227.475159 1069.961182,236.567444 
z"/>
<path fill="#FFFFFF" opacity="1.000000" stroke="none" 
	d="
M1472.237427,303.306885 
	C1462.318970,307.710175 1452.326416,310.026520 1441.786987,310.018616 
	C1388.122559,309.978241 1334.458252,310.000000 1280.793823,310.000000 
	C1279.001709,310.000000 1277.209595,310.000000 1275.211670,310.000000 
	C1275.211670,210.561157 1275.211670,111.492317 1275.211670,12.000000 
	C1277.147461,12.000000 1278.932983,12.000000 1280.718384,12.000000 
	C1315.216919,12.000000 1349.715454,12.017643 1384.213989,11.990911 
	C1397.166626,11.980875 1409.904053,13.473846 1421.587769,19.330378 
	C1433.349487,25.225939 1442.171143,34.368725 1449.267822,45.529736 
	C1457.615845,58.658993 1459.399048,73.068649 1457.751709,87.788445 
	C1456.575684,98.298088 1452.597046,108.171349 1445.213257,116.515671 
	C1440.167236,122.218193 1434.301147,127.392403 1432.565186,135.717484 
	C1429.693359,149.489044 1438.323608,163.716568 1453.868042,164.970291 
	C1477.109497,166.844818 1494.333740,177.498718 1505.279785,198.460922 
	C1510.015747,207.530716 1511.803101,216.992920 1511.950928,226.915894 
	C1512.133545,239.188477 1512.165039,251.408218 1508.109375,263.345581 
	C1503.954590,275.574524 1496.987671,285.741760 1487.202271,293.867096 
	C1482.803833,297.519501 1477.449341,300.020569 1472.237427,303.306885 
M1471.607056,255.914597 
	C1472.072266,254.718216 1472.849121,253.548218 1472.952881,252.321198 
	C1473.711304,243.365372 1474.600586,234.408051 1474.937012,225.432037 
	C1475.429443,212.288101 1464.945557,201.982468 1452.629028,201.183548 
	C1443.339478,200.580994 1434.716675,198.353516 1426.803833,193.899246 
	C1407.067017,182.789124 1396.305176,165.592346 1395.124023,143.050705 
	C1394.151855,124.499832 1401.925537,108.930359 1414.687622,95.998657 
	C1422.185669,88.400948 1423.103149,79.115250 1420.430664,70.434929 
	C1416.385742,57.297138 1407.950928,49.280624 1391.108643,49.076801 
	C1366.448975,48.778370 1341.782959,49.000000 1317.119629,49.000000 
	C1315.510498,49.000000 1313.901489,49.000000 1312.240234,49.000000 
	C1312.240234,123.891174 1312.240234,198.289215 1312.240234,273.000000 
	C1314.269043,273.000000 1316.071411,273.000000 1317.873779,273.000000 
	C1359.534790,273.000000 1401.195923,272.961884 1442.856934,273.022888 
	C1455.585693,273.041534 1464.917725,267.538544 1471.607056,255.914597 
z"/>
<path fill="#FFFFFF" opacity="1.000000" stroke="none" 
	d="
M308.000000,297.999451 
	C308.000000,304.475739 308.000000,310.452118 308.000000,316.713074 
	C288.049408,316.713074 268.314972,316.713074 248.000000,316.713074 
	C248.000000,315.031494 248.000000,313.267609 248.000000,311.503723 
	C248.000000,257.855164 247.831955,204.205750 248.108109,150.558624 
	C248.185364,135.550751 254.119751,122.239334 263.764801,110.871124 
	C271.196472,102.111755 279.784332,94.373177 290.934784,90.692436 
	C298.515778,88.189957 306.443390,85.479065 314.284210,85.255737 
	C338.756073,84.558716 363.272186,84.543030 387.747498,85.177170 
	C401.676331,85.538063 414.386688,90.763771 425.677246,99.161217 
	C440.412842,110.120934 448.786743,125.051765 452.762726,142.636841 
	C453.693756,146.754608 453.943939,151.100327 453.949982,155.341980 
	C454.026031,208.988129 453.999939,262.634430 453.999939,316.640320 
	C434.197662,316.640320 414.461578,316.640320 394.000000,316.640320 
	C394.000000,315.197693 394.000000,313.453552 394.000000,311.709442 
	C394.000000,260.560059 394.000580,209.410660 393.999451,158.261276 
	C393.999268,149.190994 389.903961,145.000122 381.050537,145.000061 
	C360.557465,144.999893 340.064392,144.999634 319.571320,145.000168 
	C311.650024,145.000381 308.004150,148.620712 308.003113,156.546875 
	C307.996826,203.531113 308.000000,250.515335 308.000000,297.999451 
z"/>
<path fill="#FFFFFF" opacity="1.000000" stroke="none" 
	d="
M529.222595,251.574951 
	C526.601196,243.928101 524.293640,236.599045 521.717102,229.365845 
	C516.564270,214.900665 511.236359,200.497986 506.032654,186.050812 
	C500.988129,172.045563 495.987000,158.024567 491.005951,143.996597 
	C483.889648,123.955109 476.809052,103.900955 469.544128,83.374390 
	C471.119873,83.214767 472.179535,83.014893 473.239380,83.013809 
	C491.898285,82.994781 510.558258,83.099625 529.215149,82.906250 
	C532.492493,82.872284 534.033630,84.148270 534.972107,86.900375 
	C538.997986,98.706856 542.918945,110.550491 547.081909,122.308434 
	C552.153870,136.633743 557.421448,150.889862 562.620605,165.169983 
	C567.986206,179.907227 573.481262,194.598404 578.716187,209.381790 
	C583.683289,223.408951 588.381714,237.531204 593.230774,251.600449 
	C593.376465,252.023285 593.885254,252.320984 594.913208,253.399017 
	C596.631042,249.576294 598.443665,246.165527 599.735901,242.567841 
	C609.742554,214.708252 619.650391,186.813156 629.585327,158.927780 
	C636.997559,138.123123 644.429932,117.325569 651.790039,96.502495 
	C653.065735,92.893478 653.830566,89.094841 655.247253,85.550026 
	C655.697571,84.423187 657.491333,83.828606 658.684204,83.010674 
	C658.797607,82.932945 659.010376,83.002708 659.176941,82.999718 
	C677.755066,82.666740 696.333191,82.331139 714.911438,82.003838 
	C716.551270,81.974953 718.192078,82.000000 720.497131,82.000000 
	C717.124634,91.902107 714.048462,101.314873 710.716248,110.636124 
	C704.305725,128.568695 697.739502,146.445602 691.257568,164.352753 
	C684.288208,183.606644 677.273865,202.844681 670.405212,222.134491 
	C664.179138,239.619675 658.079285,257.150177 652.003235,274.688263 
	C645.539001,293.346985 633.281250,306.715759 614.812866,313.543396 
	C590.979126,322.354584 563.168823,313.849792 547.369751,293.177063 
	C540.673157,284.414795 538.231567,274.175476 534.047546,264.523712 
	C532.272034,260.428070 530.945374,256.137878 529.222595,251.574951 
z"/>
<path fill="#FFFFFF" opacity="1.000000" stroke="none" 
	d="
M1580.042480,295.004028 
	C1570.224243,286.754517 1561.721680,277.651459 1557.127686,265.835785 
	C1554.655151,259.476166 1552.321533,252.563019 1552.215332,245.863281 
	C1551.474487,199.127045 1551.358032,152.381073 1550.947754,105.639038 
	C1550.918213,102.283112 1551.764648,100.856857 1555.413452,100.928864 
	C1565.727295,101.132385 1576.047607,101.000061 1587.000000,101.000061 
	C1587.000000,102.904900 1587.000000,104.661507 1587.000000,106.418114 
	C1587.000000,148.910675 1586.888550,191.403885 1587.132202,233.895050 
	C1587.164917,239.610825 1588.128174,245.641418 1590.144531,250.964081 
	C1595.615845,265.406921 1606.786865,273.078644 1621.905151,273.848633 
	C1635.866455,274.559692 1649.895508,274.185394 1663.889282,273.954102 
	C1682.329346,273.649384 1699.196533,257.336456 1699.085083,238.785324 
	C1698.820679,194.794601 1699.000000,150.801208 1699.000000,106.808907 
	C1699.000000,105.015617 1699.000000,103.222336 1699.000000,101.217346 
	C1711.095093,101.217346 1722.832031,101.217346 1735.000000,101.217346 
	C1735.000000,103.139420 1735.000000,104.923676 1735.000000,106.707939 
	C1735.000000,186.027405 1735.004150,265.346863 1734.995483,344.666321 
	C1734.994141,357.552094 1730.503418,369.006470 1723.116821,379.279938 
	C1713.695923,392.382904 1700.457886,399.660309 1684.867676,402.971619 
	C1684.547607,403.039642 1684.203003,402.998016 1683.869751,402.998016 
	C1661.741089,402.998932 1639.612427,402.998840 1617.001831,402.998840 
	C1617.001831,391.757385 1616.984741,380.816040 1617.011963,369.874756 
	C1617.020386,366.503021 1619.557861,367.007599 1621.676147,367.006256 
	C1639.173096,366.995178 1656.670044,367.000000 1674.166992,367.000000 
	C1689.393921,367.000000 1699.003052,357.376007 1698.998901,342.120697 
	C1698.995361,329.123077 1698.985840,316.125488 1698.961060,303.127899 
	C1698.960449,302.818939 1698.747192,302.510376 1698.395264,301.557892 
	C1693.173584,303.382172 1688.029541,305.574402 1682.674683,306.941467 
	C1677.064697,308.373688 1671.270996,309.710175 1665.524780,309.864502 
	C1650.538330,310.267029 1635.513306,310.487061 1620.542114,309.862213 
	C1605.744019,309.244598 1592.012207,304.769867 1580.042480,295.004028 
z"/>
<path fill="#FFFFFF" opacity="1.000000" stroke="none" 
	d="
M2110.277100,198.295746 
	C2104.452881,210.185898 2095.275146,218.355621 2084.493164,224.803116 
	C2072.630615,231.896927 2059.548096,234.150101 2045.843384,234.049576 
	C2021.689819,233.872375 1997.533936,234.000000 1973.379028,234.000000 
	C1971.742920,234.000000 1970.106934,234.000000 1968.080322,234.000000 
	C1968.262939,244.789459 1966.309692,255.457779 1973.307251,264.908386 
	C1977.689819,270.827423 1983.412109,273.916351 1990.546631,273.945251 
	C2021.864258,274.072205 2053.182617,274.000000 2084.500732,274.000000 
	C2086.144287,274.000000 2087.787598,274.000000 2089.714844,274.000000 
	C2089.714844,285.953308 2089.714844,297.688782 2089.714844,309.776276 
	C2088.367188,309.847748 2086.931641,309.989716 2085.495850,309.990295 
	C2054.510986,310.003021 2023.521729,310.319580 1992.542358,309.904785 
	C1964.870728,309.534302 1939.691895,291.360321 1934.069214,262.745605 
	C1932.911987,256.855438 1932.146484,250.790909 1932.091309,244.798553 
	C1931.870239,220.812256 1931.722778,196.818115 1932.122803,172.836456 
	C1932.308472,161.698853 1933.296875,150.584900 1937.880859,140.010849 
	C1943.824707,126.300453 1952.837524,115.496010 1965.619873,107.833107 
	C1976.465942,101.330956 1988.288330,97.827690 2000.859741,97.034958 
	C2014.006836,96.205917 2027.215454,94.667564 2040.319214,95.236389 
	C2059.495117,96.068802 2078.458252,99.592300 2093.716309,112.463631 
	C2107.083984,123.740295 2115.749756,137.992920 2118.157471,155.912567 
	C2119.789062,168.056137 2118.519043,179.512955 2114.009277,190.737808 
	C2113.010742,193.223602 2111.688965,195.579529 2110.277100,198.295746 
M2053.561768,198.003830 
	C2056.279541,197.580704 2059.211426,197.672729 2061.678711,196.646820 
	C2073.378906,191.781326 2081.125000,183.083832 2082.839355,170.505142 
	C2084.878174,155.544464 2078.973633,143.508774 2065.549805,136.373978 
	C2054.386475,130.440613 2041.616577,130.570419 2029.405151,130.261597 
	C2019.042358,129.999512 2008.559570,131.592758 1998.244507,133.133087 
	C1987.505371,134.736725 1978.109863,139.334137 1973.044434,149.647598 
	C1971.044556,153.719452 1969.355957,158.363907 1969.158203,162.820099 
	C1968.627075,174.786926 1968.977051,186.792847 1968.977051,198.998642 
	C1995.695923,198.998642 2022.808716,199.007889 2049.921387,198.958710 
	C2050.833252,198.957047 2051.743896,198.365646 2053.561768,198.003830 
z"/>
<path fill="#FFFFFF" opacity="1.000000" stroke="none" 
	d="
M842.000000,259.000000 
	C842.000000,227.840958 841.808105,197.180176 842.084778,166.523636 
	C842.214111,152.189377 844.489807,138.254913 851.839905,125.432663 
	C859.449768,112.157120 869.679932,102.098785 883.240601,94.789810 
	C895.393921,88.239441 908.120605,85.970375 921.588379,85.991081 
	C943.219910,86.024338 964.851501,86.000000 986.740967,86.000000 
	C986.740967,106.008591 986.740967,125.743881 986.740967,146.000000 
	C985.129333,146.000000 983.524109,146.000000 981.918884,146.000000 
	C960.757446,146.000000 939.590393,146.279037 918.437744,145.847610 
	C911.100464,145.697968 902.706848,153.610291 902.777100,161.544815 
	C903.217896,211.361862 903.000000,261.184723 903.000000,311.005676 
	C903.000000,312.815735 903.000000,314.625793 903.000000,316.716980 
	C882.706909,316.716980 862.638000,316.716980 842.000000,316.716980 
	C842.000000,297.686646 842.000000,278.593323 842.000000,259.000000 
z"/>
<path fill="#FFFFFF" opacity="1.000000" stroke="none" 
	d="
M1829.000000,60.000000 
	C1829.000000,73.807228 1829.000000,87.114456 1829.000000,100.814377 
	C1848.943481,100.814377 1868.680298,100.814377 1888.707275,100.814377 
	C1888.707275,112.605179 1888.707275,124.008720 1888.707275,135.808197 
	C1869.062744,135.808197 1849.325928,135.808197 1829.254272,135.808197 
	C1829.156006,137.611618 1829.010376,139.045273 1829.009888,140.478973 
	C1828.997314,177.132492 1828.721680,213.789307 1829.152588,250.437744 
	C1829.301514,263.093048 1836.569824,271.763855 1849.274780,273.868744 
	C1855.883667,274.963623 1862.719971,274.788879 1869.459351,274.964783 
	C1875.768066,275.129486 1882.084595,275.000000 1888.698242,275.000000 
	C1888.698242,286.586761 1888.698242,297.990570 1888.698242,310.000000 
	C1876.729492,310.000000 1864.639038,310.049744 1852.549072,309.983612 
	C1843.535522,309.934357 1834.773804,308.181000 1826.862915,303.911316 
	C1807.847900,293.648468 1795.984009,278.202728 1794.036377,256.145508 
	C1793.457397,249.587860 1793.049561,242.990341 1793.043457,236.410645 
	C1792.975098,161.937424 1793.000000,87.464096 1793.000000,12.990805 
	C1793.000000,11.181230 1793.000000,9.371654 1793.000000,7.282011 
	C1804.960693,7.282011 1816.697144,7.282011 1829.000000,7.282011 
	C1829.000000,24.648849 1829.000000,42.074425 1829.000000,60.000000 
z"/>
<path fill="#FFFFFF" opacity="1.000000" stroke="none" 
	d="
M800.000000,279.000000 
	C800.000000,291.809967 800.000000,304.119934 800.000000,316.714294 
	C780.043274,316.714294 760.305359,316.714294 740.283081,316.714294 
	C740.283081,240.372925 740.283081,163.972321 740.283081,87.285690 
	C759.956726,87.285690 779.694580,87.285690 800.000000,87.285690 
	C800.000000,150.983749 800.000000,214.741882 800.000000,279.000000 
z"/>
<path fill="#FFFFFF" opacity="1.000000" stroke="none" 
	d="
M2255.757812,147.741409 
	C2267.355469,136.919907 2280.488770,132.644150 2296.059326,134.878891 
	C2319.687256,138.270096 2332.905029,152.799271 2337.587158,174.840286 
	C2340.497559,188.539490 2336.899170,201.957504 2327.428955,213.062531 
	C2320.167725,221.577438 2311.243164,227.630142 2300.210449,229.962769 
	C2286.640869,232.831802 2273.835938,230.953110 2262.113281,223.033295 
	C2247.533691,213.183136 2240.280762,199.062103 2240.252441,181.976257 
	C2240.230713,168.861282 2245.097412,156.931610 2255.757812,147.741409 
z"/>
<path fill="#FFFFFF" opacity="1.000000" stroke="none" 
	d="
M2193.986816,214.977036 
	C2202.449951,211.419830 2210.779785,210.230042 2219.466797,212.005356 
	C2235.231934,215.227097 2247.569824,223.347076 2254.927246,237.872482 
	C2263.660889,255.115005 2262.273193,272.083374 2251.453857,287.906281 
	C2243.499023,299.540436 2232.080811,306.084290 2217.994385,308.031525 
	C2190.601807,311.818024 2167.979980,293.616577 2163.382812,269.168884 
	C2159.591797,249.007233 2167.854004,228.193481 2187.518311,217.911224 
	C2189.504150,216.872864 2191.558838,215.966217 2193.986816,214.977036 
z"/>
<path fill="#FFFFFF" opacity="1.000000" stroke="none" 
	d="
M784.890503,68.011421 
	C769.460327,76.351631 749.622314,69.372574 741.043762,55.216431 
	C728.852112,35.098160 740.372253,11.232021 760.550964,4.635636 
	C779.326965,-1.502201 801.607605,13.106757 804.274536,32.215183 
	C806.483643,48.043827 797.052490,62.258461 784.890503,68.011421 
z"/>
<path fill="#000000" opacity="1.000000" stroke="none" 
	d="
M1069.726562,236.283295 
	C1062.998901,227.475159 1060.022705,217.790634 1060.003296,207.142181 
	C1059.986694,197.986694 1060.062134,188.830627 1059.986938,179.675720 
	C1059.831055,160.691910 1073.086426,140.207123 1092.124756,133.869583 
	C1103.369873,130.126297 1114.563599,130.099564 1126.229492,130.752213 
	C1139.786499,131.510666 1150.604248,137.036194 1159.643311,146.320190 
	C1168.258301,155.168655 1172.759033,166.159042 1172.966431,178.628769 
	C1173.132568,188.613846 1173.301270,198.614822 1172.939331,208.589539 
	C1172.100342,231.711212 1157.428467,250.653229 1135.012817,255.530609 
	C1118.722168,259.075287 1101.282593,259.622375 1085.864868,250.757828 
	C1079.836792,247.291946 1075.220459,241.370483 1069.726562,236.283295 
z"/>
<path fill="#000000" opacity="1.000000" stroke="none" 
	d="
M1471.333252,256.191345 
	C1464.917725,267.538544 1455.585693,273.041534 1442.856934,273.022888 
	C1401.195923,272.961884 1359.534790,273.000000 1317.873779,273.000000 
	C1316.071411,273.000000 1314.269043,273.000000 1312.240234,273.000000 
	C1312.240234,198.289215 1312.240234,123.891174 1312.240234,49.000000 
	C1313.901489,49.000000 1315.510498,49.000000 1317.119629,49.000000 
	C1341.782959,49.000000 1366.448975,48.778370 1391.108643,49.076801 
	C1407.950928,49.280624 1416.385742,57.297138 1420.430664,70.434929 
	C1423.103149,79.115250 1422.185669,88.400948 1414.687622,95.998657 
	C1401.925537,108.930359 1394.151855,124.499832 1395.124023,143.050705 
	C1396.305176,165.592346 1407.067017,182.789124 1426.803833,193.899246 
	C1434.716675,198.353516 1443.339478,200.580994 1452.629028,201.183548 
	C1464.945557,201.982468 1475.429443,212.288101 1474.937012,225.432037 
	C1474.600586,234.408051 1473.711304,243.365372 1472.952881,252.321198 
	C1472.849121,253.548218 1472.072266,254.718216 1471.333252,256.191345 
z"/>
<path fill="#000000" opacity="1.000000" stroke="none" 
	d="
M2053.108398,198.026489 
	C2051.743896,198.365646 2050.833252,198.957047 2049.921387,198.958710 
	C2022.808716,199.007889 1995.695923,198.998642 1968.977051,198.998642 
	C1968.977051,186.792847 1968.627075,174.786926 1969.158203,162.820099 
	C1969.355957,158.363907 1971.044556,153.719452 1973.044434,149.647598 
	C1978.109863,139.334137 1987.505371,134.736725 1998.244507,133.133087 
	C2008.559570,131.592758 2019.042358,129.999512 2029.405151,130.261597 
	C2041.616577,130.570419 2054.386475,130.440613 2065.549805,136.373978 
	C2078.973633,143.508774 2084.878174,155.544464 2082.839355,170.505142 
	C2081.125000,183.083832 2073.378906,191.781326 2061.678711,196.646820 
	C2059.211426,197.672729 2056.279541,197.580704 2053.108398,198.026489 
z"/>
</svg>