<?xml version="1.0" encoding="UTF-8" standalone="no"?>
<!DOCTYPE svg PUBLIC "-//W3C//DTD SVG 1.1//EN" "http://www.w3.org/Graphics/SVG/1.1/DTD/svg11.dtd">
<svg version="1.1" xmlns="http://www.w3.org/2000/svg" xmlns:xl="http://www.w3.org/1999/xlink" xmlns:dc="http://purl.org/dc/elements/1.1/" viewBox="20 0 884.81 178.44">
  <defs/>
  <g id="Canvas_1" fill="none" stroke-dasharray="none" stroke="none" stroke-opacity="1" fill-opacity="1">
    <title>Canvas 1</title>
    <g id="Canvas_1_Layer_1">
      <title>Layer 1</title>
      <g id="Graphic_19">
        <path d="M 1154.749 553.173 C 1154.749 559.096 1149.922 563.923 1143.999 563.923 L 1100.797 563.923 L 1100.797 489.5 L 1127.258 489.5 C 1130.828 489.5 1133.931 491.238 1135.789 494.287 C 1137.5 497.095 1137.741 500.411 1136.457 503.393 L 1136.257 503.713 L 1133.021 507.685 C 1128.327 513.421 1127.271 521.203 1130.253 527.982 C 1133.248 534.761 1139.693 539.24 1147.087 539.655 C 1151.379 539.896 1154.749 543.452 1154.749 547.758 Z M 1147.743 528.182 C 1146.192 528.089 1144.761 527.608 1143.571 526.779 C 1142.367 525.95 1141.405 524.773 1140.776 523.356 C 1139.519 520.508 1139.947 517.365 1141.913 514.945 L 1146.085 509.864 L 1146.352 509.316 C 1149.815 502.604 1149.534 494.755 1145.603 488.31 C 1141.672 481.852 1134.813 478.001 1127.258 478.001 L 1089.311 478.001 L 1089.311 575.422 L 1143.999 575.422 C 1156.26 575.422 1166.248 565.434 1166.248 553.173 L 1166.248 547.758 C 1166.248 537.368 1158.119 528.771 1147.743 528.182" fill="#0f4c81"/>
      </g>
      <g id="Graphic_18">
        <path d="M 1228.1965 551.8493 C 1228.1965 558.6013 1222.7005 564.0973 1215.9485 564.0973 L 1203.1925 564.0973 C 1196.4265 564.0973 1190.9315 558.6013 1190.9315 551.8493 L 1190.9315 507.2703 L 1179.7665 507.2703 L 1179.7665 551.8493 C 1179.7665 564.7663 1190.2755 575.2753 1203.1925 575.2753 L 1215.9485 575.2753 C 1219.5315 575.2753 1223.0085 574.4463 1226.2705 572.8423 L 1228.1965 571.8923 L 1228.1965 585.8123 C 1228.1965 591.0803 1224.7325 594.9043 1219.9465 594.9043 L 1201.3475 594.9043 L 1201.3475 606.0693 L 1219.9465 606.0693 C 1230.8435 606.0693 1239.3745 597.1773 1239.3745 585.8123 L 1239.3745 507.2703 L 1228.1965 507.2703 Z" fill="#0f4c81"/>
      </g>
      <g id="Graphic_17">
        <path d="M 1270.1411 476.1022 L 1258.9631 476.1022 L 1258.9631 556.0342 C 1258.9631 566.7582 1267.6811 575.4762 1278.4051 575.4762 L 1289.7571 575.4762 L 1289.7571 564.2982 L 1278.4051 564.2982 C 1273.8451 564.2982 1270.1411 560.5942 1270.1411 556.0342 L 1270.1411 518.2342 L 1289.7571 518.2342 L 1289.7571 507.0562 L 1270.1411 507.0562 Z" fill="#0f4c81"/>
      </g>
      <g id="Graphic_16">
        <path d="M 1342.7327 539.2672 L 1315.6967 539.2672 L 1315.6967 528.3432 C 1315.6967 523.0082 1319.5077 518.4082 1324.7357 517.4192 L 1326.2597 517.1252 C 1332.4777 515.9342 1338.7747 515.9752 1344.9797 517.2582 C 1350.1277 518.3152 1353.8577 522.8872 1353.8577 528.1422 C 1353.8577 534.2802 1348.8707 539.2672 1342.7327 539.2672 M 1347.2117 506.3072 C 1343.2677 505.4922 1339.2837 505.0912 1335.2987 505.0912 C 1331.5817 505.0912 1327.8507 505.4382 1324.1597 506.1472 L 1322.6367 506.4412 C 1312.1537 508.4472 1304.5317 517.6592 1304.5317 528.3432 L 1304.5317 556.1812 C 1304.5317 566.7582 1313.1427 575.3692 1323.7197 575.3692 L 1355.5027 575.3692 L 1355.5027 564.2042 L 1323.7197 564.2042 C 1319.3067 564.2042 1315.6967 560.6072 1315.6967 556.1812 L 1315.6967 550.4452 L 1342.7327 550.4452 C 1355.0347 550.4452 1365.0357 540.4442 1365.0357 528.1422 C 1365.0357 517.6062 1357.5347 508.4202 1347.2117 506.3072" fill="#0f4c81"/>
      </g>
      <g id="Graphic_15">
        <path d="M 691.508 493.508 L 691.508 516.105 L 724.174 516.105 L 724.174 535.613 L 691.508 535.613 L 691.508 558.211 L 746.196 558.211 L 746.196 577.719 L 672 577.719 L 672 474 L 746.196 474 L 746.196 493.508 Z" fill="#0f4c81"/>
      </g>
      <g id="Graphic_14">
        <path d="M 819.8839 524.6758 L 819.8839 577.7188 L 800.6959 577.7188 L 800.6959 524.6758 C 800.6959 522.6838 799.0649 521.0518 797.0729 521.0518 L 775.8259 521.0518 C 773.8199 521.0518 772.2029 522.6838 772.2029 524.6758 L 772.2029 577.7188 L 753.0019 577.7188 L 753.0019 524.6758 C 753.0019 512.0938 763.2439 501.8648 775.8259 501.8648 L 797.0729 501.8648 C 809.6549 501.8648 819.8839 512.0938 819.8839 524.6758 Z" fill="#0f4c81"/>
      </g>
      <g id="Graphic_13">
        <path d="M 907.1302 501.0493 L 884.4262 564.9493 C 881.7112 572.5843 874.4512 577.7193 866.3482 577.7193 C 858.2452 577.7193 850.9712 572.5843 848.2712 564.9493 L 825.5802 501.0893 L 845.9442 501.0893 L 866.3482 558.5313 L 886.7392 501.1023 Z" fill="#0f4c81"/>
      </g>
      <g id="Graphic_12">
        <rect x="914.2166" y="502.213" width="19.188" height="75.506" fill="#0f4c81"/>
      </g>
      <g id="Graphic_11">
        <path d="M 934.7949 485.9399 C 934.7949 491.9969 929.8609 496.9179 923.8169 496.9179 C 917.7609 496.9179 912.8259 491.9969 912.8259 485.9399 C 912.8259 479.8829 917.7609 474.9619 923.8169 474.9619 C 929.8609 474.9619 934.7949 479.8829 934.7949 485.9399 Z" fill="#0f4c81"/>
      </g>
      <g id="Graphic_10">
        <path d="M 994.4567 502.1724 L 994.4567 521.3734 L 972.2877 521.3734 C 969.3057 521.3734 966.8857 523.7934 966.8857 526.7754 L 966.8857 577.7194 L 947.6847 577.7194 L 947.6847 526.7754 C 947.6847 513.2034 958.7287 502.1724 972.2877 502.1724 Z" fill="#0f4c81"/>
      </g>
      <g id="Graphic_9">
        <path d="M 1039.2361 558.5315 L 1034.9981 558.5315 C 1025.8111 558.5315 1018.3501 551.0575 1018.3501 541.8845 L 1018.3501 532.9665 C 1018.3501 523.7805 1025.8111 516.3055 1034.9981 516.3055 L 1039.2361 516.3055 C 1048.4221 516.3055 1055.8961 523.7805 1055.8961 532.9665 L 1055.8961 541.8845 C 1055.8961 551.0575 1048.4221 558.5315 1039.2361 558.5315 M 1039.2361 497.1185 L 1034.9981 497.1185 C 1015.2351 497.1185 999.1501 513.1905 999.1501 532.9525 L 999.1501 541.8845 C 999.1501 561.6465 1015.2351 577.7185 1034.9981 577.7185 L 1039.2361 577.7185 C 1059.0121 577.7185 1075.0841 561.6465 1075.0841 541.8845 L 1075.0841 532.9525 C 1075.0841 513.1905 1059.0121 497.1185 1039.2361 497.1185" fill="#0f4c81"/>
      </g>
      <g id="Graphic_8">
        <path d="M 1228.249 552.0288 C 1228.249 558.7808 1222.753 564.2768 1216.001 564.2768 L 1203.245 564.2768 C 1196.479 564.2768 1190.984 558.7808 1190.984 552.0288 L 1190.984 507.4498 L 1179.819 507.4498 L 1179.819 552.0288 C 1179.819 564.9458 1190.328 575.4548 1203.245 575.4548 L 1216.001 575.4548 C 1219.584 575.4548 1223.061 574.6258 1226.323 573.0218 L 1228.249 572.0718 L 1228.249 585.9918 C 1228.249 591.2598 1224.785 595.0838 1219.999 595.0838 L 1201.4 595.0838 L 1201.4 606.2488 L 1219.999 606.2488 C 1230.896 606.2488 1239.427 597.3568 1239.427 585.9918 L 1239.427 507.4498 L 1228.249 507.4498 Z" fill="#0f4c81"/>
      </g>
      <g id="Graphic_22">
        <path d="M 1409.8995 525.6493 C 1403.7465 531.8023 1403.7465 541.7773 1409.8995 547.9303 C 1416.0525 554.0833 1426.0274 554.0833 1432.1804 547.9303 C 1438.3335 541.7773 1438.3335 531.8023 1432.1804 525.6493 C 1426.0274 519.4963 1416.0525 519.4963 1409.8995 525.6493 Z" fill="#109995"/>
      </g>
      <g id="Graphic_21">
        <path d="M 1480.8289 477.001 L 1480.8289 562.07 C 1480.8289 562.959 1480.7569 563.848 1480.6129 564.728 C 1480.0949 567.883 1478.6469 570.913 1476.2759 573.347 C 1470.2089 579.577 1460.3659 579.577 1454.2989 573.347 C 1451.9279 570.913 1450.4799 567.883 1449.9619 564.728 C 1449.8179 563.848 1449.7459 562.959 1449.7459 562.07 L 1449.7459 526.86 C 1449.7459 516.942 1441.2779 508.084 1431.6149 508.084 L 1394.7169 508.084 C 1390.7399 508.084 1387.3959 507.342 1384.3629 504.229 C 1378.2929 498.002 1378.2929 487.9 1384.3629 481.674 C 1387.3959 478.561 1391.3739 477.001 1395.3509 477.001 Z" fill="#882daa"/>
      </g>
      <g id="Graphic_20">
        <path d="M 1384.425 551.1237 C 1378.272 557.2767 1378.272 567.2517 1384.425 573.4047 C 1390.578 579.5577 1400.553 579.5577 1406.706 573.4047 C 1412.859 567.2517 1412.859 557.2767 1406.706 551.1237 C 1400.553 544.9707 1390.578 544.9707 1384.425 551.1237 Z" fill="#9ad9ef"/>
      </g>
    </g>
  </g>
</svg>
