<?xml version="1.0" encoding="UTF-8" standalone="no"?>
<!DOCTYPE svg PUBLIC "-//W3C//DTD SVG 1.1//EN" "http://www.w3.org/Graphics/SVG/1.1/DTD/svg11.dtd">
<svg version="1.1" xmlns="http://www.w3.org/2000/svg" xmlns:xl="http://www.w3.org/1999/xlink" xmlns:dc="http://purl.org/dc/elements/1.1/" viewBox="20 0 884.81 178.44">
  <defs/>
  <g id="Canvas_1" fill="none" stroke-dasharray="none" stroke="none" stroke-opacity="1" fill-opacity="1">
    <title>Canvas 1</title>
    <g id="Canvas_1_Layer_1">
      <title>Layer 1</title>
      <g id="Graphic_4">
        <path d="M 1403.8995 698.6483 C 1397.7465 704.8013 1397.7465 714.7763 1403.8995 720.9293 C 1410.0525 727.0823 1420.0274 727.0823 1426.1804 720.9293 C 1432.3335 714.7763 1432.3335 704.8013 1426.1804 698.6483 C 1420.0274 692.4953 1410.0525 692.4953 1403.8995 698.6483 Z" fill="white"/>
      </g>
      <g id="Graphic_3">
        <path d="M 1474.8288 652.7009 L 1474.8288 737.7699 C 1474.8288 738.6589 1474.7568 739.5479 1474.6128 740.4279 C 1474.0948 743.5829 1472.6468 746.6129 1470.2758 749.0469 C 1464.2088 755.2769 1454.3658 755.2769 1448.2988 749.0469 C 1445.9278 746.6129 1444.4798 743.5829 1443.9618 740.4279 C 1443.8178 739.5479 1443.7458 738.6589 1443.7458 737.7699 L 1443.7458 702.5599 C 1443.7458 692.6419 1435.2778 683.7839 1425.6148 683.7839 L 1388.7168 683.7839 C 1384.7398 683.7839 1381.3958 683.0419 1378.3628 679.9289 C 1372.2928 673.7019 1372.2928 663.5999 1378.3628 657.3739 C 1381.3958 654.2609 1385.3738 652.7009 1389.3508 652.7009 Z" fill="white"/>
      </g>
      <g id="Graphic_2">
        <path d="M 1378.425 724.1227 C 1372.272 730.2757 1372.272 740.2507 1378.425 746.4037 C 1384.578 752.5567 1394.553 752.5567 1400.706 746.4037 C 1406.859 740.2507 1406.859 730.2757 1400.706 724.1227 C 1394.553 717.9697 1384.578 717.9697 1378.425 724.1227 Z" fill="white"/>
      </g>
      <g id="Graphic_31">
        <path d="M 1148.749 729.173 C 1148.749 735.096 1143.922 739.923 1137.999 739.923 L 1094.797 739.923 L 1094.797 665.5 L 1121.258 665.5 C 1124.828 665.5 1127.931 667.238 1129.789 670.287 C 1131.5 673.095 1131.741 676.411 1130.457 679.393 L 1130.257 679.713 L 1127.021 683.685 C 1122.327 689.421 1121.271 697.203 1124.253 703.982 C 1127.248 710.761 1133.693 715.24 1141.087 715.655 C 1145.379 715.896 1148.749 719.452 1148.749 723.758 Z M 1141.743 704.182 C 1140.192 704.089 1138.761 703.608 1137.571 702.779 C 1136.367 701.95 1135.405 700.773 1134.776 699.356 C 1133.519 696.508 1133.947 693.365 1135.913 690.945 L 1140.085 685.864 L 1140.352 685.316 C 1143.815 678.604 1143.534 670.755 1139.603 664.31 C 1135.672 657.852 1128.813 654.001 1121.258 654.001 L 1083.311 654.001 L 1083.311 751.422 L 1137.999 751.422 C 1150.26 751.422 1160.248 741.434 1160.248 729.173 L 1160.248 723.758 C 1160.248 713.368 1152.119 704.771 1141.743 704.182" fill="white"/>
      </g>
      <g id="Graphic_30">
        <path d="M 1222.1965 727.8493 C 1222.1965 734.6013 1216.7005 740.0973 1209.9485 740.0973 L 1197.1925 740.0973 C 1190.4265 740.0973 1184.9315 734.6013 1184.9315 727.8493 L 1184.9315 683.2703 L 1173.7665 683.2703 L 1173.7665 727.8493 C 1173.7665 740.7663 1184.2755 751.2753 1197.1925 751.2753 L 1209.9485 751.2753 C 1213.5315 751.2753 1217.0085 750.4463 1220.2705 748.8423 L 1222.1965 747.8923 L 1222.1965 761.8123 C 1222.1965 767.0803 1218.7325 770.9043 1213.9465 770.9043 L 1195.3475 770.9043 L 1195.3475 782.0693 L 1213.9465 782.0693 C 1224.8435 782.0693 1233.3745 773.1773 1233.3745 761.8123 L 1233.3745 683.2703 L 1222.1965 683.2703 Z" fill="white"/>
      </g>
      <g id="Graphic_29">
        <path d="M 1264.1411 652.1022 L 1252.9631 652.1022 L 1252.9631 732.0342 C 1252.9631 742.7582 1261.6811 751.4762 1272.4051 751.4762 L 1283.7571 751.4762 L 1283.7571 740.2982 L 1272.4051 740.2982 C 1267.8451 740.2982 1264.1411 736.5942 1264.1411 732.0342 L 1264.1411 694.2342 L 1283.7571 694.2342 L 1283.7571 683.0562 L 1264.1411 683.0562 Z" fill="white"/>
      </g>
      <g id="Graphic_28">
        <path d="M 1336.7327 715.2672 L 1309.6967 715.2672 L 1309.6967 704.3432 C 1309.6967 699.0082 1313.5077 694.4082 1318.7357 693.4192 L 1320.2597 693.1252 C 1326.4777 691.9342 1332.7747 691.9752 1338.9797 693.2582 C 1344.1277 694.3152 1347.8577 698.8872 1347.8577 704.1422 C 1347.8577 710.2802 1342.8707 715.2672 1336.7327 715.2672 M 1341.2117 682.3072 C 1337.2677 681.4922 1333.2837 681.0912 1329.2987 681.0912 C 1325.5817 681.0912 1321.8507 681.4382 1318.1597 682.1472 L 1316.6367 682.4412 C 1306.1537 684.4472 1298.5317 693.6592 1298.5317 704.3432 L 1298.5317 732.1812 C 1298.5317 742.7582 1307.1427 751.3692 1317.7197 751.3692 L 1349.5027 751.3692 L 1349.5027 740.2042 L 1317.7197 740.2042 C 1313.3067 740.2042 1309.6967 736.6072 1309.6967 732.1812 L 1309.6967 726.4452 L 1336.7327 726.4452 C 1349.0347 726.4452 1359.0357 716.4442 1359.0357 704.1422 C 1359.0357 693.6062 1351.5347 684.4202 1341.2117 682.3072" fill="white"/>
      </g>
      <g id="Graphic_27">
        <path d="M 685.508 669.508 L 685.508 692.105 L 718.174 692.105 L 718.174 711.613 L 685.508 711.613 L 685.508 734.211 L 740.196 734.211 L 740.196 753.719 L 666 753.719 L 666 650 L 740.196 650 L 740.196 669.508 Z" fill="white"/>
      </g>
      <g id="Graphic_26">
        <path d="M 813.8839 700.6758 L 813.8839 753.7188 L 794.6959 753.7188 L 794.6959 700.6758 C 794.6959 698.6838 793.0649 697.0518 791.0729 697.0518 L 769.8259 697.0518 C 767.8199 697.0518 766.2029 698.6838 766.2029 700.6758 L 766.2029 753.7188 L 747.0019 753.7188 L 747.0019 700.6758 C 747.0019 688.0938 757.2439 677.8648 769.8259 677.8648 L 791.0729 677.8648 C 803.6549 677.8648 813.8839 688.0938 813.8839 700.6758 Z" fill="white"/>
      </g>
      <g id="Graphic_25">
        <path d="M 901.1302 677.0493 L 878.4262 740.9493 C 875.7112 748.5843 868.4512 753.7193 860.3482 753.7193 C 852.2452 753.7193 844.9712 748.5843 842.2712 740.9493 L 819.5802 677.0893 L 839.9442 677.0893 L 860.3482 734.5313 L 880.7392 677.1023 Z" fill="white"/>
      </g>
      <g id="Graphic_24">
        <rect x="908.2166" y="678.213" width="19.188" height="75.506" fill="white"/>
      </g>
      <g id="Graphic_23">
        <path d="M 928.7949 661.9399 C 928.7949 667.9969 923.8609 672.9179 917.8169 672.9179 C 911.7609 672.9179 906.8259 667.9969 906.8259 661.9399 C 906.8259 655.8829 911.7609 650.9619 917.8169 650.9619 C 923.8609 650.9619 928.7949 655.8829 928.7949 661.9399 Z" fill="white"/>
      </g>
      <g id="Graphic_22">
        <path d="M 988.4567 678.1724 L 988.4567 697.3734 L 966.2877 697.3734 C 963.3057 697.3734 960.8857 699.7934 960.8857 702.7754 L 960.8857 753.7194 L 941.6847 753.7194 L 941.6847 702.7754 C 941.6847 689.2034 952.7287 678.1724 966.2877 678.1724 Z" fill="white"/>
      </g>
      <g id="Graphic_21">
        <path d="M 1033.2361 734.5315 L 1028.9981 734.5315 C 1019.8111 734.5315 1012.3501 727.0575 1012.3501 717.8845 L 1012.3501 708.9665 C 1012.3501 699.7805 1019.8111 692.3055 1028.9981 692.3055 L 1033.2361 692.3055 C 1042.4221 692.3055 1049.8961 699.7805 1049.8961 708.9665 L 1049.8961 717.8845 C 1049.8961 727.0575 1042.4221 734.5315 1033.2361 734.5315 M 1033.2361 673.1185 L 1028.9981 673.1185 C 1009.2351 673.1185 993.1501 689.1905 993.1501 708.9525 L 993.1501 717.8845 C 993.1501 737.6465 1009.2351 753.7185 1028.9981 753.7185 L 1033.2361 753.7185 C 1053.0121 753.7185 1069.0841 737.6465 1069.0841 717.8845 L 1069.0841 708.9525 C 1069.0841 689.1905 1053.0121 673.1185 1033.2361 673.1185" fill="white"/>
      </g>
      <g id="Graphic_20">
        <path d="M 1222.249 728.0288 C 1222.249 734.7808 1216.753 740.2768 1210.001 740.2768 L 1197.245 740.2768 C 1190.479 740.2768 1184.984 734.7808 1184.984 728.0288 L 1184.984 683.4498 L 1173.819 683.4498 L 1173.819 728.0288 C 1173.819 740.9458 1184.328 751.4548 1197.245 751.4548 L 1210.001 751.4548 C 1213.584 751.4548 1217.061 750.6258 1220.323 749.0218 L 1222.249 748.0718 L 1222.249 761.9918 C 1222.249 767.2598 1218.785 771.0838 1213.999 771.0838 L 1195.4 771.0838 L 1195.4 782.2488 L 1213.999 782.2488 C 1224.896 782.2488 1233.427 773.3568 1233.427 761.9918 L 1233.427 683.4498 L 1222.249 683.4498 Z" fill="white"/>
      </g>
    </g>
  </g>
</svg>
